<svg width="26" height="34" viewBox="0 0 26 34" fill="none" xmlns="http://www.w3.org/2000/svg">
<path d="M1.40723 33H24.5931" stroke="#0075F2" stroke-linecap="round" stroke-linejoin="round"/>
<path fill-rule="evenodd" clip-rule="evenodd" d="M12.7243 33V12.2266L3.72656 19.4828V33H12.7243Z" fill="#0075F2" fill-opacity="0.2" stroke="#0075F2" stroke-linecap="round" stroke-linejoin="round"/>
<path d="M6.25781 22.4785H10.187" stroke="#0075F2" stroke-width="0.514745" stroke-linecap="round" stroke-linejoin="round"/>
<path d="M6.25781 20.8008H10.187" stroke="#0075F2" stroke-width="0.514745" stroke-linecap="round" stroke-linejoin="round"/>
<path d="M8.22266 19.1206H10.1873" stroke="#0075F2" stroke-width="0.514745" stroke-linecap="round" stroke-linejoin="round"/>
<path d="M6.25781 24.1582H10.187" stroke="#0075F2" stroke-width="0.514745" stroke-linecap="round" stroke-linejoin="round"/>
<path d="M6.25781 25.8384H10.187" stroke="#0075F2" stroke-width="0.514745" stroke-linecap="round" stroke-linejoin="round"/>
<path d="M6.25781 27.5161H10.187" stroke="#0075F2" stroke-width="0.514745" stroke-linecap="round" stroke-linejoin="round"/>
<path d="M6.25781 29.1958H10.187" stroke="#0075F2" stroke-width="0.514745" stroke-linecap="round" stroke-linejoin="round"/>
<path d="M6.25781 30.876H10.187" stroke="#0075F2" stroke-width="0.514745" stroke-linecap="round" stroke-linejoin="round"/>
<path d="M10.5508 11.4924V6.41016L22.0691 15.6979V33.0002" stroke="#0075F2" stroke-linecap="round" stroke-linejoin="round"/>
<path d="M13.4209 6.63131V1L20.8693 7.00708V12.9987" stroke="#0075F2" stroke-linecap="round" stroke-linejoin="round"/>
<path d="M16.1844 19.5342H14.7432" stroke="#0075F2" stroke-width="0.514745" stroke-linecap="round" stroke-linejoin="round"/>
<path d="M16.1844 17.3843H14.7432" stroke="#0075F2" stroke-width="0.514745" stroke-linecap="round" stroke-linejoin="round"/>
<path d="M16.1844 15.2344H14.7432" stroke="#0075F2" stroke-width="0.514745" stroke-linecap="round" stroke-linejoin="round"/>
<path d="M16.1844 21.6841H14.7432" stroke="#0075F2" stroke-width="0.514745" stroke-linecap="round" stroke-linejoin="round"/>
<path d="M16.1844 23.8325H14.7432" stroke="#0075F2" stroke-width="0.514745" stroke-linecap="round" stroke-linejoin="round"/>
<path d="M16.1844 25.9824H14.7432" stroke="#0075F2" stroke-width="0.514745" stroke-linecap="round" stroke-linejoin="round"/>
<path d="M16.1844 28.1323H14.7432" stroke="#0075F2" stroke-width="0.514745" stroke-linecap="round" stroke-linejoin="round"/>
<path d="M16.1844 30.2803H14.7432" stroke="#0075F2" stroke-width="0.514745" stroke-linecap="round" stroke-linejoin="round"/>
<path d="M19.4044 19.5342H17.9648" stroke="#0075F2" stroke-width="0.514745" stroke-linecap="round" stroke-linejoin="round"/>
<path d="M19.4044 17.3843H17.9648" stroke="#0075F2" stroke-width="0.514745" stroke-linecap="round" stroke-linejoin="round"/>
<path d="M19.4044 21.6841H17.9648" stroke="#0075F2" stroke-width="0.514745" stroke-linecap="round" stroke-linejoin="round"/>
<path d="M19.4044 23.8325H17.9648" stroke="#0075F2" stroke-width="0.514745" stroke-linecap="round" stroke-linejoin="round"/>
<path d="M19.4044 25.9824H17.9648" stroke="#0075F2" stroke-width="0.514745" stroke-linecap="round" stroke-linejoin="round"/>
<path d="M19.4044 28.1323H17.9648" stroke="#0075F2" stroke-width="0.514745" stroke-linecap="round" stroke-linejoin="round"/>
<path d="M19.4044 30.2803H17.9648" stroke="#0075F2" stroke-width="0.514745" stroke-linecap="round" stroke-linejoin="round"/>
<path d="M15.0723 4.92578L19.2211 8.21329" stroke="#0075F2" stroke-linecap="round" stroke-linejoin="round"/>
<path d="M15.0723 6.99854L19.2211 10.286" stroke="#0075F2" stroke-linecap="round" stroke-linejoin="round"/>
</svg>
